PathFileType	4	(X/Y/Z)	Kaydara	
DataRate	CameraRate	NumFrames	NumMarkers	Units	OrigDataRate	OrigDataStartFrame	OrigNumFrames	
60.00	60.00	5	74	mm	60.00	1585	67	
Frame#	Time	Y_rasi			Y_rpsi			Y_lpsi			Y_fneck			Y_bneck			Y_fhead			Y_rhead			Y_rshld			Y_relbtop			Y_relbext			Y_relblow			Y_rwrext			Y_rwrtop			Y_rwrlow			Y_lshld			Y_lelbext			Y_lelblow			Y_lelbtop			Y_lwrext			Y_lwrtop			Y_lwrlow			Y_rtopleg			Y_ltopleg			Y_rkneefr			Y_rkneebk			Y_rkneeis			Y_lkneefr			Y_lknssbk			Y_lkneeis			Y_rankfr			Y_rankis			Y_rankbk			Y_lankfr			Y_lankbk			Y_lankis			Y_lhead			Y_lasi			D_rpsi			D_lpsi			D_fneck			D_bneck			D_fhead			D_rhead			D_lhead			D_rshld			D_relbtop			D_relbext			D_relblow			D_rwrext			D_rwrtop			D_rwrlow			D_lshld			D_lelbext			D_lelblow			D_lelbtop			D_lwrext			D_lwrtop			D_lwrlow			D_rtopleg			D_ltopleg			D_rkneefr			D_rkneebk			D_rkneeis			D_lkneefr			D_lknssbk			D_lkneeis			D_rankfr			D_rankis			D_rankbk			D_lankfr			D_lankbk			D_lankis			D_lasi			D_rasi			
		X1	Y1	Z1	X2	Y2	Z2	X3	Y3	Z3	X4	Y4	Z4	X5	Y5	Z5	X6	Y6	Z6	X7	Y7	Z7	X8	Y8	Z8	X9	Y9	Z9	X10	Y10	Z10	X11	Y11	Z11	X12	Y12	Z12	X13	Y13	Z13	X14	Y14	Z14	X15	Y15	Z15	X16	Y16	Z16	X17	Y17	Z17	X18	Y18	Z18	X19	Y19	Z19	X20	Y20	Z20	X21	Y21	Z21	X22	Y22	Z22	X23	Y23	Z23	X24	Y24	Z24	X25	Y25	Z25	X26	Y26	Z26	X27	Y27	Z27	X28	Y28	Z28	X29	Y29	Z29	X30	Y30	Z30	X31	Y31	Z31	X32	Y32	Z32	X33	Y33	Z33	X34	Y34	Z34	X35	Y35	Z35	X36	Y36	Z36	X37	Y37	Z37	X38	Y38	Z38	X39	Y39	Z39	X40	Y40	Z40	X41	Y41	Z41	X42	Y42	Z42	X43	Y43	Z43	X44	Y44	Z44	X45	Y45	Z45	X46	Y46	Z46	X47	Y47	Z47	X48	Y48	Z48	X49	Y49	Z49	X50	Y50	Z50	X51	Y51	Z51	X52	Y52	Z52	X53	Y53	Z53	X54	Y54	Z54	X55	Y55	Z55	X56	Y56	Z56	X57	Y57	Z57	X58	Y58	Z58	X59	Y59	Z59	X60	Y60	Z60	X61	Y61	Z61	X62	Y62	Z62	X63	Y63	Z63	X64	Y64	Z64	X65	Y65	Z65	X66	Y66	Z66	X67	Y67	Z67	X68	Y68	Z68	X69	Y69	Z69	X70	Y70	Z70	X71	Y71	Z71	X72	Y72	Z72	X73	Y73	Z73	X74	Y74	Z74	

1	26.400	-570.65018	1093.72559	-134.18612	-563.96400	1065.95146	-314.16466	-337.46670	1054.24309	-239.54563	-483.65749	1432.76093	-181.08362	-402.86709	1478.70956	-262.02435	-523.97327	1626.64246	-105.74217	-501.26141	1577.50000	-277.26934	-611.46984	1429.45831	-312.79427	-769.91554	1235.84465	-163.83816	-775.31013	1215.29793	-244.53625	-738.77213	1165.22087	-196.51737	-775.22247	1420.09186	-112.00211	-746.31516	1420.70358	-144.05828	-710.10399	1404.34006	-124.78645	-266.97224	1388.96317	-124.94134	-172.41838	1081.54564	-130.84076	-212.79593	1066.46988	-174.90593	-237.93060	1112.41982	-101.21342	-405.00736	958.99986	-42.12704	-398.00262	975.33272	-2.24961	-412.53563	1019.07570	-11.46988	-641.04736	916.31454	-265.37315	-306.39940	903.79807	-123.52286	-641.87332	414.07383	-281.82768	-619.47445	460.75596	-355.64522	-546.31054	422.58869	-270.58041	-344.36516	474.48151	-114.71913	-281.99347	496.94660	-208.12250	-401.16249	468.22563	-192.35655	-632.97035	143.33049	-331.49078	-562.51945	135.43717	-341.58421	-602.32468	137.82836	-396.63448	-277.19397	132.51096	-170.47310	-260.69761	130.90689	-237.98136	-334.08573	125.60428	-207.84655	-377.92770	1562.88635	-188.62183	-418.99590	1081.88370	-84.69949	-932.29073	1171.96396	578.42331	-1078.62030	1178.66531	477.63863	-945.99594	1607.52121	441.06380	-1034.09973	1651.05988	518.79623	-933.22922	1788.48679	309.03994	-958.52440	1806.88095	485.57014	-1082.66510	1781.05911	400.04646	-839.48837	1559.19632	589.38103	-791.17668	1207.77588	577.22443	-744.46274	1222.95784	618.88889	-802.52731	1193.76823	662.83470	-652.04567	1012.12677	446.01898	-653.03696	1043.17680	416.95694	-699.05380	1041.54037	401.26297	-1184.36897	1545.94238	407.75444	-1190.41512	1173.83141	354.77669	-1153.97881	1154.84123	421.44848	-1128.02498	1182.84042	344.95060	-1130.32272	928.57712	309.91123	-1114.37500	947.72575	271.64289	-1070.33974	951.22520	290.79659	-818.85536	1035.49858	566.63849	-1104.03297	1032.15729	358.04523	-789.90746	555.36823	469.37881	-804.31923	562.69005	581.45058	-901.12717	541.12865	502.89391	-1001.48888	468.73989	366.21258	-1091.68007	517.96368	416.02123	-1003.23288	503.66707	478.64906	-787.80945	194.10669	555.77240	-862.15485	183.99887	535.68192	-841.65680	186.93270	619.25053	-1049.86298	161.05997	413.52261	-1069.09561	155.62619	490.21782	-986.61331	164.47447	447.26879	-998.88176	1192.63420	338.06046	-827.11601	1188.15712	446.82804 
2	26.417	-570.56084	1093.50174	-133.36733	-564.97761	1065.83603	-313.23246	-338.03486	1054.03587	-240.49955	-483.94127	1432.95227	-180.05251	-403.61061	1478.59650	-261.88803	-523.03204	1627.93320	-106.08679	-501.31603	1577.06635	-277.20072	-612.65442	1429.25018	-310.13424	-772.69714	1216.59225	-154.07724	-776.14914	1215.41336	-243.49789	-739.65134	1165.25818	-195.08030	-771.33194	1420.74203	-112.13162	-742.98203	1420.47699	-144.63328	-706.57578	1403.98148	-126.52699	-266.50120	1388.44589	-126.43958	-172.65858	1080.78941	-132.99227	-213.52131	1065.81924	-176.81129	-237.97482	1111.92123	-102.77482	-404.85313	959.25781	-42.59557	-397.95532	975.75233	-2.40064	-412.27455	1019.17221	-12.25590	-641.78093	916.25587	-264.77280	-306.69449	903.80569	-123.76578	-641.99287	414.02138	-281.53103	-619.82330	460.77648	-355.28908	-546.32282	422.68150	-270.46932	-344.45614	474.65122	-114.37746	-282.24323	496.99272	-207.92812	-401.46557	468.14423	-191.78089	-633.03589	143.30920	-331.37680	-562.70073	135.41263	-341.44585	-602.42542	137.88696	-396.53717	-277.26419	132.48693	-170.35059	-260.82129	130.97275	-237.92847	-334.12045	125.56116	-207.68246	-377.70905	1562.84225	-188.98638	-418.40202	1081.59569	-85.04763	-934.29741	1171.69800	577.78870	-1080.60936	1177.88307	476.45172	-948.82118	1606.77948	440.83424	-1037.09251	1650.99335	517.69104	-933.82477	1785.71533	307.06034	-960.97343	1806.56845	483.19572	-1084.32495	1780.45502	396.63704	-841.83243	1558.64655	587.79987	-795.98694	1202.69272	572.07085	-745.04303	1218.20129	610.43446	-805.15869	1192.18216	653.55591	-653.81897	984.46274	463.00781	-654.20006	1012.22954	430.05898	-700.04616	1009.31870	413.92040	-1187.01256	1545.46555	407.15862	-1192.18857	1173.35609	353.39767	-1156.23520	1154.33853	420.39181	-1129.90158	1182.59262	343.83823	-1131.37413	928.32504	308.40977	-1115.24353	947.57591	270.18066	-1071.34155	951.11389	289.65647	-821.50711	1034.99710	565.10643	-1105.35080	1031.89369	356.97605	-789.13521	555.42023	467.37465	-804.12102	562.68291	579.47559	-900.86555	541.33934	501.58463	-1001.95938	468.48869	365.54893	-1092.28760	517.71229	415.03159	-1003.72726	503.68553	477.63695	-787.75154	194.09250	555.02563	-862.25479	183.93078	535.34630	-841.72386	187.29572	618.65448	-1049.99939	160.82895	413.26187	-1069.01413	155.60066	489.80789	-986.79329	164.44494	447.00325	-1000.55420	1192.47169	337.39937	-829.40170	1188.31200	446.96640 
3	26.433	-570.58102	1093.31612	-132.40388	-566.23352	1065.77751	-312.49321	-338.63468	1053.94295	-241.33181	-484.15913	1433.25745	-179.70654	-404.14394	1478.40012	-262.00649	-522.26662	1628.81119	-106.17488	-501.52840	1576.89804	-277.22549	-613.44360	1428.86734	-308.90078	-772.79526	1216.37047	-152.77837	-776.16272	1215.17166	-242.20137	-739.83421	1165.05630	-193.77903	-768.52791	1420.90897	-111.67541	-740.62035	1420.29984	-144.58220	-704.05235	1403.65387	-126.57150	-266.06411	1388.09113	-127.69252	-173.14419	1080.18845	-135.69780	-214.38442	1065.39627	-179.07885	-237.94722	1111.55083	-104.56384	-404.62868	959.46991	-43.72701	-397.82154	976.05865	-3.62353	-411.95942	1019.28993	-13.29588	-642.35336	916.07475	-263.88857	-306.89243	903.86047	-124.21882	-642.22633	414.01428	-281.28233	-620.13073	460.80742	-354.99596	-546.58352	422.69192	-270.29861	-344.29672	474.68517	-114.38969	-282.45094	496.99764	-207.95637	-401.64429	468.08567	-191.33303	-633.13614	143.29868	-331.27220	-562.73483	135.45582	-341.41453	-602.53777	137.96839	-396.44939	-277.35157	132.47425	-170.30056	-260.93565	131.03560	-237.90249	-333.88180	125.38722	-207.36197	-377.44774	1562.75406	-189.60415	-418.03711	1081.29837	-85.55152	-936.59378	1171.37596	577.09911	-1082.86636	1177.23389	475.54657	-951.54816	1605.74188	440.09682	-1039.46327	1650.88791	516.49799	-934.29115	1783.02185	304.97719	-962.94197	1805.98526	480.29793	-1085.73425	1779.44427	392.94102	-843.37914	1557.64175	585.65071	-795.23300	1197.89444	562.18655	-745.97107	1213.20099	603.92601	-808.34747	1190.05432	645.04784	-658.09059	961.45058	481.21613	-656.37856	986.66145	446.10115	-701.60492	983.94691	428.28232	-1189.55109	1545.02151	406.74919	-1194.11194	1172.92206	352.16747	-1158.30330	1153.86909	419.12174	-1131.80107	1182.32513	343.08590	-1132.68898	928.15094	306.85038	-1116.29440	947.55615	268.67872	-1072.48917	951.16821	288.42607	-823.26637	1034.71214	564.98989	-1106.67885	1031.66328	355.19367	-788.38287	555.58971	465.29305	-803.65112	562.44991	577.15576	-899.82147	540.79128	498.63441	-1002.49268	468.29750	364.63242	-1092.89513	517.47101	413.97346	-1004.36172	503.56899	476.69491	-787.56454	193.98819	554.46545	-862.04636	183.92406	534.38076	-841.75331	187.66436	617.89192	-1050.11520	160.61485	413.08556	-1069.41307	155.66464	489.67686	-986.96251	164.42169	446.65707	-1002.34772	1192.23946	336.84490	-831.28166	1188.31726	446.44497 
4	26.450	-570.64728	1093.18275	-131.56922	-567.22309	1065.76263	-311.87426	-339.38606	1053.84521	-241.83832	-484.30088	1433.41904	-179.59772	-404.47578	1478.20419	-262.32698	-521.40720	1629.09653	-106.22907	-501.76517	1576.88873	-277.34062	-613.92250	1428.56720	-308.82113	-772.50206	1216.04591	-151.58954	-776.01685	1214.76318	-241.03952	-739.39346	1164.81544	-192.56323	-766.99776	1420.78629	-110.58034	-739.28879	1419.98825	-143.51322	-702.60071	1403.38303	-125.90174	-266.12188	1387.91519	-128.27647	-173.71674	1079.71992	-138.57358	-215.45282	1065.27473	-181.54552	-238.01714	1111.15952	-106.67490	-404.38251	959.58199	-44.72428	-397.65697	976.19011	-4.76127	-411.63166	1019.38271	-14.15270	-643.25150	916.00410	-263.02328	-306.94578	903.91380	-124.79570	-642.48383	413.95103	-280.98875	-620.46501	460.84419	-354.74785	-546.78944	422.72251	-270.16729	-344.02096	474.72675	-114.58436	-282.60109	496.99749	-208.19685	-401.70998	468.05508	-191.12535	-633.21678	143.31159	-331.15231	-562.78763	135.53514	-341.38042	-602.62131	138.01902	-396.42830	-277.38207	132.51388	-170.29657	-260.99277	131.05408	-237.92015	-334.22268	125.56240	-207.55005	-377.18491	1562.75223	-190.34727	-417.89425	1081.17035	-85.42607	-938.61221	1171.06056	576.52092	-1084.62204	1176.90765	475.06802	-953.52760	1604.46350	439.13921	-1041.03432	1650.49149	515.22408	-934.65088	1780.83694	302.42752	-964.55101	1804.90692	477.49031	-1086.72806	1777.94739	389.26437	-844.30046	1556.58630	583.37975	-790.11253	1194.14627	551.05728	-748.05916	1209.28780	599.97528	-813.63121	1188.55568	639.05323	-665.32379	943.34846	499.76181	-660.23994	966.37367	463.48309	-703.98170	964.91989	442.69005	-1192.06749	1544.75067	406.69563	-1196.26617	1172.74750	350.94639	-1160.86960	1153.55568	418.19153	-1133.85933	1182.20673	342.24033	-1133.99284	928.16490	305.21441	-1117.55432	947.72263	267.28386	-1073.93997	951.19324	287.70075	-825.46295	1035.14885	563.18977	-1108.22594	1031.43707	354.03873	-787.26555	555.92422	462.90546	-803.58543	562.29904	574.97757	-899.10545	540.82241	496.53996	-1003.08258	468.13545	363.53451	-1093.45306	517.31628	412.97935	-1004.90562	503.54294	475.56927	-787.47147	193.85756	553.56319	-861.94115	183.79461	533.65231	-841.62025	187.94062	617.05029	-1050.27397	160.41000	412.80376	-1069.70451	155.55439	489.46629	-987.21024	164.37746	446.37562	-1004.23676	1192.00790	336.21540	-832.80228	1188.36586	445.66212 
5	26.467	-570.78907	1093.19351	-131.00431	-568.00312	1065.67566	-311.13138	-339.95445	1053.84483	-242.02740	-484.30546	1433.39554	-179.71401	-404.70779	1478.08182	-262.73966	-520.96672	1629.04312	-106.22516	-502.02648	1576.94504	-277.56266	-614.25270	1428.30948	-309.19399	-772.14172	1215.70877	-150.51142	-775.64255	1214.29367	-239.70181	-739.04724	1164.61082	-191.74471	-766.62773	1420.40268	-108.80781	-738.98430	1419.75845	-141.95229	-702.29874	1403.07022	-124.32727	-265.81446	1387.77725	-128.98308	-174.28177	1079.34471	-141.51146	-216.57265	1065.23399	-184.04133	-238.24717	1110.82504	-109.20127	-404.16138	959.47357	-45.86735	-397.31377	976.01707	-5.98823	-411.53255	1019.33884	-15.21188	-644.04594	916.06735	-262.10480	-306.42813	904.11873	-125.76980	-642.70798	414.08222	-280.67108	-620.91896	460.88081	-354.52583	-546.98875	422.78214	-270.12035	-343.75576	474.74670	-114.88042	-282.64277	496.99272	-208.73192	-401.70727	468.01399	-191.16734	-633.28358	143.29066	-331.08940	-562.92419	135.54136	-341.36517	-602.75898	138.04207	-396.41350	-277.40225	132.50208	-170.37987	-261.06674	131.07244	-237.98124	-334.24339	125.54358	-207.53773	-377.09938	1562.84332	-190.90073	-418.00652	1081.12633	-85.43343	-940.63278	1170.74120	575.93941	-1086.92886	1176.12488	474.41475	-955.01419	1603.27347	437.50755	-1042.15866	1650.15091	513.58257	-935.12558	1779.77966	299.79099	-965.96161	1803.73138	474.65542	-1087.52426	1776.18820	386.00533	-845.20546	1555.87250	581.03474	-787.74582	1192.21451	544.04877	-750.70259	1207.16995	597.73693	-818.42430	1187.47643	635.31025	-675.53848	930.15366	517.18678	-665.76759	951.28181	480.94856	-707.40982	951.58394	455.81642	-1194.34242	1544.60693	406.57520	-1198.42224	1172.78320	349.95628	-1163.34961	1153.35464	417.30423	-1135.88478	1182.24121	341.68297	-1135.56137	928.28720	303.69638	-1118.97316	948.09372	265.90267	-1075.29884	951.58432	286.36089	-826.95290	1035.08240	562.58759	-1110.01160	1031.18607	352.96043	-786.18088	556.24481	460.50728	-802.77397	562.15874	572.39941	-898.20305	540.49610	493.84232	-1003.55690	468.08578	362.39693	-1094.01573	517.12971	411.71310	-1005.49889	503.47542	474.49661	-787.26349	193.83945	552.61658	-861.66214	183.80865	532.53273	-841.28700	188.24688	616.06953	-1050.46158	160.25839	412.34776	-1070.07385	155.48874	489.07444	-987.41776	164.27118	446.14937	-1006.31058	1191.74057	335.86220	-835.66025	1188.36586	445.97218 
